<svg xmlns="http://www.w3.org/2000/svg" width="32" height="32" viewBox="0 0 32 32" fill="none"><path fill-rule="evenodd" clip-rule="evenodd" d="M8.08011 11.062C8.22984 11.6345 8.81388 11.9301 9.40721 11.7359C14.2716 10.2616 19.1477 9.2528 24.1793 8.51892C24.7559 8.44293 25.0715 7.8557 24.8595 7.26662C24.4128 6.0256 24.187 5.40662 23.7302 4.17235C23.5363 3.64841 23.0121 3.30472 22.4756 3.36207C17.5585 3.95913 12.808 4.8409 8.04691 6.19908C7.42677 6.3908 7.04628 7.0745 7.2026 7.68119C7.5503 9.03139 7.72581 9.70751 8.08011 11.062Z" fill="#2C2A29"></path><path fill-rule="evenodd" clip-rule="evenodd" d="M27.5612 11.7859C27.3735 11.2297 26.8648 10.8581 26.3615 10.9238C18.7164 11.8923 11.2719 13.771 4.21235 16.8761C3.69743 17.118 3.38856 17.7621 3.49671 18.3292C3.77322 19.7804 3.9129 20.5067 4.19535 21.9608C4.3162 22.5825 4.90035 22.8687 5.47651 22.589C12.6469 19.3248 20.2247 17.2463 27.9982 16.007C28.4923 15.9267 28.7442 15.3639 28.5552 14.7839C28.1633 13.5819 27.9645 12.9821 27.5612 11.7859Z" fill="#2C2A29"></path><path fill-rule="evenodd" clip-rule="evenodd" d="M27.6147 19.9014C27.4262 19.3039 26.8749 18.9137 26.3513 19.0223C21.6014 20.0588 16.9584 21.3082 12.3591 22.8982C11.7758 23.1134 11.4473 23.7325 11.6007 24.3021C11.9662 25.6586 12.1502 26.3381 12.5205 27.6992C12.6944 28.3383 13.4075 28.6653 14.0646 28.4135C18.6625 26.7574 23.3064 25.3111 28.0517 24.1516C28.507 24.0401 28.731 23.5032 28.5616 22.9493C28.1883 21.7275 27.9987 21.118 27.6147 19.9014Z" fill="#2C2A29"></path></svg>